<?xml version="1.0" encoding="UTF-8"?>
<svg id="Layer_1" xmlns="http://www.w3.org/2000/svg" version="1.1" viewBox="0 0 841.89 1190.55">
  <!-- Generator: Adobe Illustrator 29.8.1, SVG Export Plug-In . SVG Version: 2.1.1 Build 2)  -->
  <polygon points="331.81 938.78 509.57 938.78 478.37 852.13 363.01 852.13 331.81 938.78"/>
  <path d="M668.56,543.06l-252.45-291.29-244.98,288.3c-47.28,71.76-49.12,158.04-6.48,214.82,30.23,40.25,73.95,53.89,93.12,58.54,4.56,1.22,21.36,5.4,42.76,3.14l88.4-230.23h63.02l88.88,229.76c46.67,7.12,82.44-15.24,93.38-22.09,57.24-35.82,69.21-98.57,71.7-115.02,11.08-73.26-30.03-126.74-37.34-135.93Z"/>
  <polygon points="386.39 788.6 455 788.6 420.44 693.57 386.39 788.6"/>
</svg>