<svg width="596" height="425" xmlns="http://www.w3.org/2000/svg" version="1.1">
 <!-- Generator: Adobe Illustrator 29.8.1, SVG Export Plug-In . SVG Version: 2.1.1 Build 2)  -->

 <g>
  <title>Layer 1</title>
  <polygon id="svg_1" fill="#231f20" points="140.1699447631836,365.2599792480469 122.3099594116211,417.9800109863281 228.50994110107422,417.9800109863281 210.34996795654297,365.2599792480469 140.1699447631836,365.2599792480469 " class="st0"/>
  <polygon id="svg_2" fill="#231f20" points="154.38994598388672,326.6100158691406 196.12996673583984,326.6100158691406 175.09996795654297,268.7900085449219 154.38994598388672,326.6100158691406 " class="st0"/>
  <path id="svg_3" fill="#231f20" d="m511.28995,297.49l0,38.9l39.54,0c0,22.64 -9.89,43.37 -35.4,43.37c-39.86,0 -47.51,-36.67 -47.51,-68.88s7.34,-68.88 47.2,-68.88c21.37,0 33.16,10.2 45.28,26.47l31.89,-29.02c-21.05,-28.06 -41.14,-42.41 -77.17,-42.41c-55.83,0 -83.24,38.27 -90.67,85.55c-7.21,-44.79 -32.9,-81.07 -85.39,-82.39c-5.6,-12.3 -11.87,-20.43 -13.9,-22.98l-153.59,-177.22l-149.04,175.4c-28.77,43.66 -29.88,96.15 -3.94,130.7c18.39,24.49 44.99,32.79 56.65,35.62c2.84,0.76 13.48,3.4 26.95,1.79l53.74,-139.96l38.34,0l54.12,139.92s0.04,0 0.05,0c8.3,43.62 34.84,78.13 87.63,78.13s81.04,-36.81 88.38,-82.44c7.34,46.8 34.22,85.56 89.39,85.56c17.54,0 32.53,-4.47 43.69,-18.82l0,16.26l38.27,0l0,-124.69l-84.51,0l0,0.02zm-175.22,80.38c-39.08,0 -45.9,-35.66 -45.9,-66.99c0,-9.81 0.67,-20.05 2.79,-29.48c5.94,-16.7 16.67,-29.72 29.81,-35.89c3.96,-1.06 8.37,-1.63 13.31,-1.63c39.39,0 45.9,35.66 45.9,66.99s-6.82,66.99 -45.9,66.99l-0.01,0.01z" class="st0"/>
 </g>
</svg>