<svg width="603" height="121" xmlns="http://www.w3.org/2000/svg" version="1.1">
 <!-- Generator: Adobe Illustrator 29.8.1, SVG Export Plug-In . SVG Version: 2.1.1 Build 2)  -->

 <g>
  <title>Layer 1</title>
  <path class="st0" d="m161.51131,119.78998l-41.46,0l0,-60.42l41.46,0l0,12.2l-29.08,0l0,11.34l25.36,0l0,11.69l-25.36,0l0,12.98l29.08,0l0,12.2l0,0.01z" fill="#231f20" id="svg_1"/>
  <path class="st0" d="m205.67131,120.99998c-18.78,0 -25.98,-15.22 -25.98,-31.77s7.21,-31.77 25.98,-31.77s25.98,15.22 25.98,31.77s-7.21,31.77 -25.98,31.77zm0,-50.98c-11.21,0 -13.17,10.23 -13.17,19.22s1.96,19.22 13.17,19.22s13.17,-10.23 13.17,-19.22s-1.87,-19.22 -13.17,-19.22z" fill="#231f20" id="svg_2"/>
  <path class="st0" d="m277.17131,70.72998l-29.19,0l0,11.66l25.98,0l0,12.01l-25.98,0l0,25.89l-12.64,0l0,-62.11l41.82,0l0,12.55l0.01,0z" fill="#231f20" id="svg_3"/>
  <path class="st0" d="m118.37131,109.31998c-6.66,7.88 -11.08,11.25 -21.64,11.25c-17.92,0 -26.31,-14.71 -26.31,-30.99s8.22,-30.99 26.23,-30.99c9.52,0 15.32,3.29 21.29,10.47l-8.74,8.57c-3.55,-3.98 -6.84,-6.84 -12.55,-6.84c-10.39,0 -13.59,10.13 -13.59,18.78s3.2,18.78 13.59,18.78c5.89,0 9.43,-3.12 12.98,-7.53l8.74,8.48l0,0.02z" fill="#231f20" id="svg_4"/>
  <path class="st0" d="m343.03131,84.01998l0,35.77l-10.98,0l0,-4.67c-3.2,4.12 -7.5,5.4 -12.53,5.4c-18.94,0 -26.26,-15.92 -26.26,-32.66s7.5,-32.66 26.62,-32.66c10.34,0 16.1,4.12 22.14,12.17l-9.15,8.33c-3.48,-4.67 -6.86,-7.59 -12.99,-7.59c-11.44,0 -13.54,10.52 -13.54,19.76s2.2,19.76 13.63,19.76c7.32,0 10.16,-5.95 10.16,-12.44l-11.35,0l0,-11.16l24.25,0l0,-0.01z" fill="#231f20" id="svg_5"/>
  <path class="st0" d="m381.45131,92.61998c0.82,0.73 1.83,2.29 2.56,3.38l15.19,23.79l-15.19,0l-12.81,-21.41c-1.92,-3.29 -2.75,-4.3 -6.68,-4.3l-3.2,0l0,25.71l-13.08,0l0,-63.86l23.42,0c12.44,0 22.14,5.95 22.14,19.4c0,7.96 -4.85,14.73 -12.35,17.29zm-9.7,-24.06l-10.43,0l0,14l10.43,0c5.03,0 8.97,-1.28 8.97,-7.14s-4.12,-6.86 -8.97,-6.86z" fill="#231f20" id="svg_6"/>
  <path class="st0" d="m454.50131,119.78998l-14.18,0l-5.76,-16.01l-20.77,0l-5.76,16.01l-14.09,0l24.52,-63.86l11.34,0l24.7,63.86zm-24.16,-27.44l-6.22,-17.11l-6.13,17.11l12.35,0z" fill="#231f20" id="svg_7"/>
  <path class="st0" d="m472.52131,119.78998l-18.02,0l0,-63.86l18.02,0c24.7,0 30.47,7.78 30.47,31.93s-5.76,31.93 -30.47,31.93zm15.55,-46.93c-1.92,-3.11 -5.67,-4.03 -12.62,-4.03l-7.87,0l0,38.06l7.87,0c7.04,0 10.8,-1.01 12.72,-4.3c1.28,-2.2 1.74,-5.21 1.74,-14.64s-0.46,-12.81 -1.83,-15.1l-0.01,0.01z" fill="#231f20" id="svg_8"/>
  <path class="st0" d="m551.53131,119.78998l-43.82,0l0,-63.86l43.82,0l0,12.9l-30.74,0l0,11.99l26.81,0l0,12.35l-26.81,0l0,13.72l30.74,0l0,12.9z" fill="#231f20" id="svg_9"/>
  <path class="st0" d="m579.34131,120.70998c-13.54,0 -22.51,-6.4 -25.8,-19.4l12.35,-2.47c1.83,6.59 6.59,9.42 13.45,9.42c4.76,0 10.89,-2.47 10.89,-8.05c0,-11.53 -34.68,-3.57 -34.68,-26.62c0,-12.35 11.07,-18.39 22.05,-18.39c11.62,0 18.85,4.39 23.88,14.64l-11.25,5.21c-2.93,-5.31 -6.22,-7.69 -12.63,-7.69c-3.57,0 -8.97,1.65 -8.97,6.22c0,9.7 34.67,3.29 34.67,26.62c0,13.17 -11.89,20.49 -23.97,20.49l0.01,0.02z" fill="#231f20" id="svg_10"/>
  <g id="svg_11">
   <path d="m93.29131,50.84998l-44.07,-50.85l-42.76,50.32c-8.25,12.53 -8.57,27.59 -1.13,37.5c5.28,7.03 12.91,9.41 16.25,10.22c0.82,0.22 3.87,0.97 7.73,0.51l15.42,-40.15l11,0l15.53,40.14c5.08,0.71 9.4,-0.57 12.37,-1.91c-0.66,-2.26 -1.03,-4.71 -1.03,-7.28c0,-11.07 6.68,-20.04 14.93,-20.04c0.89,0 1.75,0.12 2.6,0.32c-0.2,-10.21 -5.73,-17.41 -6.83,-18.8l-0.01,0.02z" id="svg_12"/>
   <polygon points="60.35131072998047,104.79998779296875 40.21131134033203,104.79998779296875 35.09131622314453,119.92999267578125 65.56131744384766,119.92999267578125 60.35131072998047,104.79998779296875 " id="svg_13"/>
   <polygon points="44.29131317138672,93.7099609375 56.27130889892578,93.7099609375 50.23131561279297,77.1300048828125 44.29131317138672,93.7099609375 " id="svg_14"/>
  </g>
 </g>
</svg>